<svg width="132" height="111" viewBox="0 0 132 111" fill="none" xmlns="http://www.w3.org/2000/svg">
<path d="M22.3135 0.717773C16.5043 0.717773 10.9331 3.02547 6.82533 7.13319C2.71761 11.2409 0.409912 16.8122 0.409912 22.6214V24.8227L66.1208 60.208L131.832 24.8337V22.6214C131.832 16.8122 129.524 11.2409 125.416 7.13319C121.308 3.02547 115.737 0.717773 109.928 0.717773H22.3135ZM131.832 37.264L68.7163 71.2474C67.9186 71.6768 67.0268 71.9016 66.1208 71.9016C65.2148 71.9016 64.3229 71.6768 63.5252 71.2474L0.409912 37.264V88.3322C0.409912 94.1414 2.71761 99.7127 6.82533 103.82C10.9331 107.928 16.5043 110.236 22.3135 110.236H109.928C115.737 110.236 121.308 107.928 125.416 103.82C129.524 99.7127 131.832 94.1414 131.832 88.3322V37.264Z" fill="#F5FBEF"/>
</svg>
