<svg width="456" height="456" viewBox="0 0 456 456" fill="none" xmlns="http://www.w3.org/2000/svg">
<path d="M228 0C102.557 0 0 102.557 0 228C0 353.443 102.557 456 228 456C353.443 456 456 353.443 456 228C456 102.557 354.54 0 228 0ZM332.88 329.46C328.334 336.286 320.326 338.58 313.5 333.977C259.92 300.96 192.674 294.12 112.817 312.317C104.88 314.668 98.04 308.969 95.7315 302.057C93.5085 294.12 99.1515 287.294 105.977 285C192.674 265.62 267.929 273.557 327.152 310.08C335.174 313.5 336.271 322.62 332.866 329.46H332.88ZM360.254 266.746C354.54 274.768 344.294 278.189 336.271 272.46C274.754 234.826 181.231 223.483 109.469 246.254C100.334 248.477 90.0172 243.96 87.7942 234.812C85.5 225.692 90.0173 215.446 99.1515 213.152C182.429 188.057 284.986 200.668 355.652 243.946C362.549 247.366 365.969 258.78 360.254 266.732V266.746ZM362.563 202.92C289.532 159.557 167.58 155.04 98.04 176.714C86.6258 180.12 75.2542 173.294 71.8342 162.977C68.4285 151.62 75.2543 140.191 85.5 136.771C166.483 112.817 299.834 117.406 384.237 167.566C394.483 173.28 397.874 186.946 392.174 197.192C386.46 205.214 372.794 208.606 362.548 202.906L362.563 202.92Z" fill="#F5FBEF"/>
</svg>
