<svg width="111" height="89" viewBox="0 0 111 89" fill="none" xmlns="http://www.w3.org/2000/svg">
<path d="M111 10.557C106.918 12.341 102.533 13.5464 97.9231 14.0913C102.68 11.2841 106.238 6.86591 107.935 1.66114C103.466 4.27923 98.5749 6.12208 93.4745 7.10957C90.0445 3.49752 85.5015 1.1034 80.5507 0.298904C75.5998 -0.505594 70.5182 0.324543 66.0947 2.66043C61.6712 4.99632 58.1534 8.70727 56.0874 13.2171C54.0214 17.727 53.5227 22.7834 54.6689 27.6015C45.6138 27.153 36.7554 24.8317 28.6687 20.788C20.582 16.7444 13.4477 11.0689 7.72884 4.12981C5.77341 7.45672 4.64904 11.314 4.64904 15.422C4.64685 19.1202 5.5702 22.7617 7.33716 26.0235C9.10411 29.2853 11.66 32.0665 14.7782 34.1203C11.162 34.0068 7.62556 33.0431 4.46327 31.3093V31.5986C4.46291 36.7854 6.28198 41.8126 9.61183 45.8272C12.9417 49.8417 17.5772 52.5964 22.7319 53.6237C19.3773 54.5192 15.8602 54.6511 12.4463 54.0095C13.9007 58.4724 16.7336 62.3751 20.5485 65.1712C24.3634 67.9672 28.9693 69.5167 33.7214 69.6026C25.6544 75.8486 15.6918 79.2366 5.4361 79.2217C3.61941 79.2222 1.80426 79.1176 0 78.9083C10.4101 85.51 22.5282 89.0136 34.9044 89C76.7995 89 99.7025 54.7761 99.7025 25.0942C99.7025 24.1299 99.6781 23.1559 99.6341 22.1916C104.089 19.014 107.934 15.0792 110.99 10.5715L111 10.557V10.557Z" fill="#F5FBEF"/>
</svg>
