<svg width="100" height="70" viewBox="0 0 100 70" fill="none" xmlns="http://www.w3.org/2000/svg">
<path fill-rule="evenodd" clip-rule="evenodd" d="M39.675 47.9094V19.9467L66.6917 33.9757L39.675 47.9094ZM99 15.0989C99 15.0989 98.0208 8.23993 95.025 5.22097C91.2208 1.25652 86.9583 1.23993 85.0042 1.0077C71.0125 1.23588e-07 50.0208 0 50.0208 0H49.9792C49.9792 0 28.9875 1.23588e-07 14.9958 1.0077C13.0375 1.23578 8.77917 1.25652 4.97083 5.22097C1.975 8.23993 1 15.0989 1 15.0989C1 15.0989 0 23.1564 0 31.2056V38.7613C0 46.8146 1 54.8679 1 54.8679C1 54.8679 1.975 61.7228 4.97083 64.7459C8.77917 68.7103 13.775 68.5859 16 69.0006C24 69.7636 50 70 50 70C50 70 71.0125 69.971 85.0042 68.9633C86.9625 68.731 91.2208 68.7103 95.025 64.7459C98.025 61.7228 99 54.8679 99 54.8679C99 54.8679 100 46.8146 100 38.7571V31.2097C100 23.1564 99 15.0989 99 15.0989Z" fill="#F5FBEF"/>
</svg>
