<svg width="56" height="75" viewBox="0 0 56 75" fill="none" xmlns="http://www.w3.org/2000/svg">
<path d="M1.60173 40.5843L50.1416 74.3338C50.7018 74.7231 51.3573 74.951 52.0372 74.993C52.7171 75.0349 53.3955 74.8892 53.9989 74.5718C54.6023 74.2543 55.1077 73.777 55.4605 73.1918C55.8132 72.6065 55.9998 71.9355 56 71.2513V3.75242C56.0004 3.06797 55.8144 2.39645 55.4619 1.81064C55.1095 1.22482 54.6041 0.747057 54.0006 0.429121C53.3971 0.111185 52.7184 -0.0347964 52.0382 0.00699915C51.3579 0.0487947 50.702 0.276773 50.1416 0.666225L1.60173 34.4157C1.10722 34.7623 0.703356 35.2237 0.424491 35.7607C0.145625 36.2977 0 36.8944 0 37.5C0 38.1056 0.145625 38.7023 0.424491 39.2393C0.703356 39.7763 1.10722 40.2377 1.60173 40.5843V40.5843Z" fill="black"/>
</svg>
