<svg width="57" height="75" viewBox="0 0 57 75" fill="none" xmlns="http://www.w3.org/2000/svg">
<path d="M2.03687 74.5752C2.65159 74.8907 3.3418 75.0351 4.03338 74.9928C4.72497 74.9505 5.39183 74.7232 5.96239 74.3351L55.364 40.5834C55.8688 40.2382 56.2813 39.7775 56.5662 39.2406C56.8512 38.7038 57 38.1068 57 37.5007C57 36.8947 56.8512 36.2976 56.5662 35.7608C56.2813 35.2239 55.8688 34.7632 55.364 34.418L5.96239 0.66627C5.39228 0.276972 4.72511 0.0490067 4.03312 0.00705699C3.34114 -0.0348927 2.65071 0.110772 2.0366 0.42828C1.42249 0.745787 0.908089 1.22304 0.549106 1.80836C0.190123 2.39367 0.000234024 3.06475 5.16175e-08 3.74893V71.2525C-0.00011426 71.937 0.189638 72.6086 0.548689 73.1943C0.907741 73.78 1.42239 74.2575 2.03687 74.5752Z" fill="black"/>
</svg>
