<svg width="94" height="94" viewBox="0 0 94 94" fill="none" xmlns="http://www.w3.org/2000/svg">
<path d="M46.9874 31.3267C38.3572 31.3267 31.3143 38.3697 31.3143 47C31.3143 55.6303 38.3572 62.6733 46.9874 62.6733C55.6175 62.6733 62.6604 55.6303 62.6604 47C62.6604 38.3697 55.6175 31.3267 46.9874 31.3267ZM93.9948 47C93.9948 40.5096 94.0535 34.078 93.6891 27.5994C93.3246 20.0743 91.6079 13.3958 86.1053 7.89308C80.591 2.3786 73.9243 0.6737 66.3994 0.309204C59.9091 -0.0552926 53.4776 0.00349733 46.9991 0.00349733C40.5089 0.00349733 34.0774 -0.0552926 27.5989 0.309204C20.0739 0.6737 13.3955 2.39036 7.89293 7.89308C2.37856 13.4076 0.673687 20.0743 0.309198 27.5994C-0.0552915 34.0898 0.00349727 40.5214 0.00349727 47C0.00349727 53.4786 -0.0552915 59.922 0.309198 66.4006C0.673687 73.9257 2.39032 80.6042 7.89293 86.1069C13.4073 91.6214 20.0739 93.3263 27.5989 93.6908C34.0891 94.0553 40.5206 93.9965 46.9991 93.9965C53.4894 93.9965 59.9209 94.0553 66.3994 93.6908C73.9243 93.3263 80.6027 91.6096 86.1053 86.1069C91.6197 80.5924 93.3246 73.9257 93.6891 66.4006C94.0653 59.922 93.9948 53.4904 93.9948 47ZM46.9874 71.1155C33.6423 71.1155 22.8723 60.3453 22.8723 47C22.8723 33.6547 33.6423 22.8845 46.9874 22.8845C60.3324 22.8845 71.1025 33.6547 71.1025 47C71.1025 60.3453 60.3324 71.1155 46.9874 71.1155ZM72.0901 27.5288C68.9743 27.5288 66.4582 25.0126 66.4582 21.8968C66.4582 18.7809 68.9743 16.2647 72.0901 16.2647C75.2059 16.2647 77.7221 18.7809 77.7221 21.8968C77.723 22.6367 77.5779 23.3694 77.2952 24.0532C77.0125 24.7369 76.5977 25.3582 76.0746 25.8813C75.5514 26.4045 74.9302 26.8193 74.2465 27.102C73.5628 27.3847 72.83 27.5298 72.0901 27.5288Z" fill="#F5FBEF"/>
</svg>
