<svg width="384" height="512" viewBox="0 0 384 512" fill="none" xmlns="http://www.w3.org/2000/svg">
<g clip-path="url(#clip0)">
<path d="M172.268 501.67C26.97 291.031 0 269.413 0 192C0 85.961 85.961 0 192 0C298.039 0 384 85.961 384 192C384 269.413 357.03 291.031 211.732 501.67C202.197 515.444 181.802 515.443 172.268 501.67Z" fill="#F4DBA4"/>
<path d="M74.8983 171.637H31.481V180.238H48.3517V233H58.0276V180.238H74.8983V171.637ZM107.607 233C111.742 233 115.794 232.173 119.598 230.602C123.237 229.03 126.462 226.798 129.357 223.986C132.169 221.174 134.319 217.949 135.89 214.227C137.461 210.506 138.288 206.453 138.288 202.318C138.288 198.183 137.461 194.131 135.89 190.327C134.319 186.688 132.169 183.463 129.357 180.568C126.462 177.757 123.237 175.606 119.598 174.035C115.794 172.464 111.742 171.637 107.607 171.637C103.472 171.637 99.4195 172.464 95.698 174.035C91.9765 175.606 88.7512 177.757 85.9394 180.568C83.1276 183.463 80.8947 186.688 79.3234 190.327C77.7521 194.131 76.9251 198.183 76.9251 202.318C76.9251 206.453 77.7521 210.506 79.3234 214.227C80.8947 217.949 83.1276 221.174 85.9394 223.986C88.7512 226.798 91.9765 229.03 95.698 230.602C99.4195 232.173 103.472 233 107.607 233ZM107.607 181.23C113.23 181.23 118.523 183.463 122.493 187.432C126.462 191.402 128.695 196.695 128.695 202.318C128.695 207.942 126.462 213.235 122.493 217.204C118.523 221.174 113.23 223.407 107.607 223.407C101.983 223.407 96.6904 221.174 92.7208 217.204C88.7512 213.235 86.5183 207.942 86.5183 202.318C86.5183 196.695 88.7512 191.402 92.7208 187.432C96.6904 183.463 101.983 181.23 107.607 181.23ZM175.886 210.836C179.194 209.679 181.51 207.777 182.999 206.123C186.224 202.567 187.96 197.605 187.96 191.981C187.96 186.275 186.224 181.313 182.999 177.757C180.518 174.945 175.804 171.637 167.699 171.637H157.61H149.505V233H159.098V212.242H166.128L181.593 233H192.426L175.886 210.836ZM159.098 203.642V180.32H167.699C171.669 180.32 174.646 181.395 176.548 183.546C178.864 186.027 179.277 189.5 179.277 191.981C179.277 194.379 178.864 197.853 176.548 200.334C174.646 202.484 171.669 203.642 167.699 203.642H159.098ZM246.409 201.161H225.237V209.844H236.815V221.174C236.733 221.174 236.733 221.174 236.733 221.174C235.658 221.753 234.5 222.166 233.342 222.497C233.342 222.497 233.259 222.58 233.177 222.58C233.094 222.58 232.928 222.58 232.846 222.663C232.763 222.663 232.68 222.663 232.598 222.745C232.515 222.745 232.432 222.745 232.35 222.745C232.267 222.828 232.101 222.828 232.019 222.828C231.936 222.911 231.936 222.911 231.853 222.911C231.274 222.993 230.613 223.159 230.034 223.241C229.951 223.241 229.951 223.241 229.869 223.241C229.786 223.241 229.62 223.241 229.538 223.241C229.455 223.241 229.372 223.241 229.372 223.324C229.207 223.324 229.124 223.324 228.959 223.324C228.876 223.324 228.793 223.324 228.711 223.324C228.628 223.324 228.545 223.324 228.463 223.324C228.38 223.324 228.215 223.324 228.132 223.324C228.049 223.407 227.966 223.407 227.884 223.407C227.718 223.407 227.47 223.407 227.305 223.407C221.681 223.407 216.389 221.174 212.419 217.204C209.855 214.641 208.036 211.498 207.043 208.025C206.63 206.536 206.382 204.965 206.299 203.394C206.216 202.98 206.216 202.649 206.216 202.318C206.216 201.905 206.216 201.574 206.299 201.161C206.299 200.913 206.299 200.582 206.299 200.251C206.382 199.424 206.547 198.597 206.713 197.77C206.713 197.687 206.713 197.687 206.795 197.605C207.292 195.372 208.119 193.304 209.359 191.319C209.359 191.237 209.442 191.071 209.524 190.989C209.69 190.74 209.855 190.492 210.021 190.244C210.021 190.244 210.103 190.162 210.186 190.079C210.517 189.583 210.848 189.086 211.261 188.59C211.344 188.59 211.344 188.508 211.344 188.508C211.675 188.094 212.088 187.763 212.419 187.432C213.494 186.275 214.735 185.282 216.058 184.455C216.223 184.373 216.389 184.29 216.471 184.207C219.697 182.222 223.418 181.23 227.305 181.23C227.47 181.23 227.718 181.23 227.884 181.23C227.884 181.23 227.966 181.23 228.049 181.23C228.132 181.23 228.297 181.23 228.38 181.23C228.463 181.23 228.545 181.23 228.628 181.23C228.711 181.23 228.793 181.313 228.876 181.313C229.042 181.313 229.207 181.313 229.372 181.313C229.455 181.313 229.538 181.313 229.62 181.313C229.703 181.395 229.869 181.395 229.951 181.395C230.034 181.395 230.034 181.395 230.117 181.395C230.199 181.395 230.365 181.478 230.447 181.478C230.53 181.478 230.53 181.478 230.613 181.478C230.944 181.561 231.357 181.561 231.688 181.643C231.771 181.726 231.853 181.726 231.853 181.726C232.019 181.726 232.101 181.726 232.184 181.809C232.267 181.809 232.35 181.809 232.432 181.809C232.515 181.892 232.598 181.892 232.68 181.892C233.921 182.222 235.244 182.719 236.485 183.297C237.973 184.042 239.379 184.869 240.62 185.944V174.614C240.62 174.614 240.62 174.614 240.537 174.614C240.371 174.531 240.206 174.449 240.041 174.366C239.958 174.366 239.958 174.283 239.958 174.283C236.65 172.795 233.177 171.968 229.62 171.72C229.372 171.637 229.124 171.637 228.876 171.637C228.876 171.637 228.876 171.637 228.793 171.637C228.628 171.637 228.38 171.637 228.132 171.637H228.049C227.801 171.637 227.553 171.637 227.305 171.637C223.17 171.637 219.118 172.381 215.396 174.035C211.675 175.524 208.449 177.757 205.638 180.568C202.826 183.38 200.593 186.688 199.022 190.327C197.616 193.635 196.871 197.191 196.623 200.747C196.623 201.243 196.623 201.822 196.623 202.318C196.623 203.311 196.706 204.386 196.789 205.378C197.037 208.438 197.864 211.415 199.022 214.227C200.593 217.949 202.826 221.174 205.638 223.986C207.622 226.053 209.938 227.79 212.419 229.113C213.329 229.692 214.321 230.188 215.396 230.602C215.81 230.767 216.223 230.933 216.637 231.098C216.967 231.181 217.216 231.346 217.546 231.429C217.546 231.429 217.546 231.429 217.629 231.429C220.689 232.504 223.997 233 227.305 233C227.553 233 227.801 233 228.049 233H228.132C228.38 233 228.628 233 228.793 233C228.876 233 228.876 233 228.876 233C232.763 232.752 236.402 231.925 239.875 230.354C239.958 230.271 239.958 230.271 239.958 230.271C240.123 230.188 240.371 230.106 240.537 230.023C240.702 229.94 240.868 229.857 240.95 229.775C241.033 229.775 241.033 229.775 241.116 229.775C241.198 229.692 241.198 229.692 241.281 229.609C241.447 229.609 241.612 229.527 241.695 229.444C241.777 229.361 241.86 229.361 241.943 229.279C242.108 229.196 242.191 229.196 242.356 229.113C242.439 229.03 242.522 229.03 242.604 228.948C242.687 228.865 242.77 228.865 242.852 228.782C243.018 228.7 243.101 228.617 243.183 228.534C243.349 228.534 243.431 228.452 243.514 228.369C243.597 228.369 243.679 228.286 243.762 228.203C243.845 228.203 244.01 228.121 244.093 228.038C244.176 227.955 244.176 227.955 244.258 227.955L246.409 226.467V209.844V201.161ZM295.312 233H305.815L279.185 168.825L252.473 233H263.059L268.269 219.851H290.102L295.312 233ZM271.742 211.25L279.185 192.56L286.628 211.25H271.742ZM349.356 224.317H323.719V171.637H314.126V233H323.636H349.356V224.317Z" fill="black"/>
</g>
<defs>
<clipPath id="clip0">
<rect width="384" height="512" fill="white"/>
</clipPath>
</defs>
</svg>
