<?xml version="1.0" standalone="no"?><svg xmlns:xlink="http://www.w3.org/1999/xlink" xmlns="http://www.w3.org/2000/svg" viewBox="0 0 1000 636.3679820263391" preserveAspectRatio="xMaxYMax slice"><g transform="scale(0.5975286216209756)"><rect x="0" y="0" width="1673.5714285714284" height="1065" fill="#D5A18E"/><circle cx="38.04" cy="38.04" r="30.43" fill="#dbad9d"/><path d="M 83.68 68.47 A 60.86 60.86 0 0 1  144.54000000000002 7.61 L 83.68 68.47 A 60.86 60.86 0 0 0 144.54000000000002 7.61" fill="#f0d7d1"/><path d="M 159.75 68.47 A 60.86 60.86 0 0 1  220.61 7.61 L 159.75 68.47 A 60.86 60.86 0 0 0 220.61 7.61" fill="#af7d6f"/><circle cx="418.39" cy="38.04" r="30.43" fill="#b68475"/><path d="M 464.04 7.61 A 60.86 60.86 0 0 1  524.9 68.47 L 464.04 7.61 A 60.86 60.86 0 0 0 524.9 68.47" fill="#a37266"/><path d="M 540.11 7.61 A 60.86 60.86 0 0 1 600.97 68.47 L 540.11 68.47" fill="#f9eae8"/><rect x="844.3928571428571" y="7.607142857142858" width="60.857142857142854" height="60.857142857142854" fill="#D5A18E"/><path d="M 844.39 38.04 A 30.43 30.43 0 0 1  874.8199999999999 68.47 L 844.39 38.04 A 30.43 30.43 0 0 0 874.8199999999999 68.47" fill="#f0d9d3"/><path d="M 874.82 68.47 A 30.43 30.43 0 0 1  905.25 38.04 L 874.82 68.47 A 30.43 30.43 0 0 0 905.25 38.04" fill="#f5e3e0"/><rect x="996.5357142857143" y="7.607142857142858" width="60.857142857142854" height="60.857142857142854" fill="#D5A18E"/><path d="M 1026.96 7.61 A 30.43 30.43 0 0 1  1057.39 38.04 L 1026.96 7.61 A 30.43 30.43 0 0 0 1057.39 38.04" fill="#daac9b"/><circle cx="1011.755" cy="53.254999999999995" r="15.215" fill="#b38173"/><circle cx="1103.04" cy="38.04" r="30.43" fill="#99685e"/><path d="M 1148.68 7.61 A 60.86 60.86 0 0 1  1209.54 68.47 L 1148.68 7.61 A 60.86 60.86 0 0 0 1209.54 68.47" fill="#f4e0db"/><circle cx="1331.25" cy="38.04" r="30.43" fill="#d29e8c"/><rect x="1376.892857142857" y="7.607142857142858" width="60.857142857142854" height="60.857142857142854" fill="#D5A18E"/><path d="M 1407.32 38.04 A 30.43 30.43 0 0 1  1437.75 7.61 L 1437.75 38.04" fill="#fcf1f1"/><circle cx="1392.105" cy="53.254999999999995" r="15.215" fill="#b28072"/><circle cx="1422.5349999999999" cy="53.254999999999995" r="15.215" fill="#f7e6e4"/><rect x="1452.9642857142858" y="7.607142857142858" width="60.857142857142854" height="60.857142857142854" fill="#D5A18E"/><path d="M 1452.96 38.04 A 30.43 30.43 0 0 1  1483.39 68.47 L 1452.96 38.04 A 30.43 30.43 0 0 0 1483.39 68.47" fill="#fcf0f0"/><circle cx="1498.605" cy="53.254999999999995" r="15.215" fill="#dfb6a8"/><circle cx="1635.54" cy="38.04" r="30.43" fill="#80514a"/><rect x="83.67857142857143" y="83.67857142857143" width="60.857142857142854" height="60.857142857142854" fill="#D5A18E"/><circle cx="98.89500000000001" cy="98.89500000000001" r="15.215" fill="#6a3b38"/><circle cx="129.325" cy="98.89500000000001" r="15.215" fill="#7d4e47"/><path d="M 83.68 144.54 A 30.43 30.43 0 0 1  114.11000000000001 114.11 L 114.11000000000001 144.54" fill="#f4e1dd"/><path d="M 114.11 144.54 A 30.43 30.43 0 0 1  144.54 114.11 L 114.11 144.54 A 30.43 30.43 0 0 0 144.54 114.11" fill="#8c5c54"/><rect x="311.8928571428571" y="83.67857142857143" width="60.857142857142854" height="60.857142857142854" fill="#D5A18E"/><circle cx="327.10499999999996" cy="129.325" r="15.215" fill="#b17f71"/><path d="M 342.32 144.54 A 30.43 30.43 0 0 1  372.75 114.11 L 342.32 144.54 A 30.43 30.43 0 0 0 372.75 114.11" fill="#b38173"/><path d="M 540.11 83.68 A 60.86 60.86 0 0 1  600.97 144.54000000000002 L 540.11 83.68 A 60.86 60.86 0 0 0 600.97 144.54000000000002" fill="#693a37"/><circle cx="646.6099999999999" cy="114.11000000000001" r="30.43" fill="#9c6b60"/><path d="M 692.25 83.68 A 60.86 60.86 0 0 1  753.11 144.54000000000002 L 692.25 83.68 A 60.86 60.86 0 0 0 753.11 144.54000000000002" fill="#f4e1dd"/><path d="M 768.32 144.54000000000002 A 60.86 60.86 0 0 1  829.1800000000001 83.68 L 768.32 144.54000000000002 A 60.86 60.86 0 0 0 829.1800000000001 83.68" fill="#efd7d1"/><path d="M 844.39 144.54000000000002 A 60.86 60.86 0 0 1  905.25 83.68 L 844.39 144.54000000000002 A 60.86 60.86 0 0 0 905.25 83.68" fill="#d19d8b"/><path d="M 996.54 144.54000000000002 A 60.86 60.86 0 0 1  1057.3999999999999 83.68 L 996.54 144.54000000000002 A 60.86 60.86 0 0 0 1057.3999999999999 83.68" fill="#643633"/><rect x="1072.607142857143" y="83.67857142857143" width="60.857142857142854" height="60.857142857142854" fill="#D5A18E"/><path d="M 1072.61 83.68 A 30.43 30.43 0 0 1  1103.04 114.11000000000001 L 1072.61 83.68 A 30.43 30.43 0 0 0 1103.04 114.11000000000001" fill="#fef5f6"/><path d="M 1103.04 114.11000000000001 A 30.43 30.43 0 0 1  1133.47 83.68 L 1133.47 114.11000000000001" fill="#f7e6e4"/><circle cx="1087.8249999999998" cy="129.325" r="15.215" fill="#f4e1dd"/><circle cx="1118.2549999999999" cy="129.325" r="15.215" fill="#95645b"/><rect x="1148.6785714285713" y="83.67857142857143" width="60.857142857142854" height="60.857142857142854" fill="#D5A18E"/><path d="M 1148.68 114.11000000000001 A 30.43 30.43 0 0 0 1179.1100000000001 83.68 L 1148.68 83.68" fill="#562928"/><path d="M 1179.11 114.11000000000001 A 30.43 30.43 0 0 0 1209.54 83.68 L 1179.11 83.68" fill="#c79382"/><path d="M 1179.11 114.11 A 30.43 30.43 0 0 0 1209.54 144.54 L 1209.54 114.11" fill="#f1dad5"/><rect x="1224.75" y="83.67857142857143" width="60.857142857142854" height="60.857142857142854" fill="#D5A18E"/><circle cx="1239.965" cy="98.89500000000001" r="15.215" fill="#70423d"/><path d="M 1255.18 114.11 A 30.43 30.43 0 0 1  1285.6100000000001 144.54 L 1255.18 114.11 A 30.43 30.43 0 0 0 1285.6100000000001 144.54" fill="#faeceb"/><rect x="1300.8214285714287" y="83.67857142857143" width="60.857142857142854" height="60.857142857142854" fill="#D5A18E"/><circle cx="1316.0349999999999" cy="98.89500000000001" r="15.215" fill="#b78476"/><circle cx="1346.465" cy="98.89500000000001" r="15.215" fill="#9f6d62"/><path d="M 1331.25 114.11 A 30.43 30.43 0 0 1  1361.68 144.54 L 1331.25 114.11 A 30.43 30.43 0 0 0 1361.68 144.54" fill="#f7e7e4"/><rect x="1452.9642857142858" y="83.67857142857143" width="60.857142857142854" height="60.857142857142854" fill="#D5A18E"/><path d="M 1483.39 114.11000000000001 A 30.43 30.43 0 0 1  1513.8200000000002 83.68 L 1483.39 114.11000000000001 A 30.43 30.43 0 0 0 1513.8200000000002 83.68" fill="#faedec"/><circle cx="1468.175" cy="129.325" r="15.215" fill="#572a29"/><circle cx="1498.605" cy="129.325" r="15.215" fill="#d9a998"/><rect x="1529.0357142857142" y="83.67857142857143" width="60.857142857142854" height="60.857142857142854" fill="#D5A18E"/><path d="M 1529.04 83.68 A 30.43 30.43 0 0 0 1559.47 114.11000000000001 L 1559.47 83.68" fill="#f9eae8"/><path d="M 1559.46 114.11000000000001 A 30.43 30.43 0 0 1  1589.89 83.68 L 1559.46 114.11000000000001 A 30.43 30.43 0 0 0 1589.89 83.68" fill="#6f413c"/><path d="M 1529.04 144.54 A 30.43 30.43 0 0 1  1559.47 114.11 L 1529.04 144.54 A 30.43 30.43 0 0 0 1559.47 114.11" fill="#f0d9d4"/><rect x="1605.107142857143" y="83.67857142857143" width="60.857142857142854" height="60.857142857142854" fill="#D5A18E"/><path d="M 1605.11 83.68 A 30.43 30.43 0 0 1  1635.54 114.11000000000001 L 1605.11 83.68 A 30.43 30.43 0 0 0 1635.54 114.11000000000001" fill="#e9cac1"/><circle cx="1650.7549999999999" cy="98.89500000000001" r="15.215" fill="#cb9786"/><circle cx="1650.7549999999999" cy="129.325" r="15.215" fill="#542727"/><circle cx="38.04" cy="190.18" r="30.43" fill="#e8c7be"/><rect x="83.67857142857143" y="159.75" width="60.857142857142854" height="60.857142857142854" fill="#D5A18E"/><circle cx="98.89500000000001" cy="174.965" r="15.215" fill="#f1dbd6"/><circle cx="129.325" cy="174.965" r="15.215" fill="#e2bcb0"/><path d="M 83.68 220.61 A 30.43 30.43 0 0 1  114.11000000000001 190.18 L 83.68 220.61 A 30.43 30.43 0 0 0 114.11000000000001 190.18" fill="#e0b8ab"/><circle cx="129.325" cy="205.395" r="15.215" fill="#774842"/><rect x="387.96428571428567" y="159.75" width="60.857142857142854" height="60.857142857142854" fill="#D5A18E"/><circle cx="403.17499999999995" cy="174.965" r="15.215" fill="#d9aa99"/><path d="M 418.39 190.18 A 30.43 30.43 0 0 1  448.82 159.75 L 418.39 190.18 A 30.43 30.43 0 0 0 448.82 159.75" fill="#eed5ce"/><path d="M 387.96 190.18 A 30.43 30.43 0 0 0 418.39 220.61 L 418.39 190.18" fill="#fbefef"/><path d="M 418.39 190.18 A 30.43 30.43 0 0 1  448.82 220.61 L 418.39 190.18 A 30.43 30.43 0 0 0 448.82 220.61" fill="#99685e"/><circle cx="494.47" cy="190.18" r="30.43" fill="#7c4d47"/><circle cx="570.54" cy="190.18" r="30.43" fill="#86574f"/><path d="M 616.18 220.61 A 60.86 60.86 0 0 1  677.04 159.75 L 616.18 220.61 A 60.86 60.86 0 0 0 677.04 159.75" fill="#ca9685"/><rect x="692.25" y="159.75" width="60.857142857142854" height="60.857142857142854" fill="#D5A18E"/><path d="M 692.25 159.75 A 30.43 30.43 0 0 1  722.68 190.18 L 692.25 159.75 A 30.43 30.43 0 0 0 722.68 190.18" fill="#f9ebea"/><path d="M 722.68 159.75 A 30.43 30.43 0 0 1  753.1099999999999 190.18 L 722.68 159.75 A 30.43 30.43 0 0 0 753.1099999999999 190.18" fill="#f7e7e5"/><path d="M 692.25 190.18 A 30.43 30.43 0 0 1  722.68 220.61 L 692.25 190.18 A 30.43 30.43 0 0 0 722.68 220.61" fill="#6a3b38"/><circle cx="737.895" cy="205.395" r="15.215" fill="#7b4b45"/><path d="M 844.39 220.61 A 60.86 60.86 0 0 1  905.25 159.75 L 844.39 220.61 A 60.86 60.86 0 0 0 905.25 159.75" fill="#9b6a5f"/><rect x="996.5357142857143" y="159.75" width="60.857142857142854" height="60.857142857142854" fill="#D5A18E"/><path d="M 996.54 159.75 A 30.43 30.43 0 0 1  1026.97 190.18 L 996.54 159.75 A 30.43 30.43 0 0 0 1026.97 190.18" fill="#6d3e3a"/><path d="M 1026.96 159.75 A 30.43 30.43 0 0 1 1057.39 190.18 L 1026.96 190.18" fill="#774842"/><circle cx="1042.175" cy="205.395" r="15.215" fill="#d19d8b"/><rect x="1072.607142857143" y="159.75" width="60.857142857142854" height="60.857142857142854" fill="#D5A18E"/><path d="M 1072.61 190.18 A 30.43 30.43 0 0 0 1103.04 159.75 L 1072.61 159.75" fill="#fcf2f2"/><path d="M 1072.61 220.61 A 30.43 30.43 0 0 0 1103.04 190.18 L 1072.61 190.18" fill="#895951"/><circle cx="1118.2549999999999" cy="205.395" r="15.215" fill="#643633"/><rect x="1148.6785714285713" y="159.75" width="60.857142857142854" height="60.857142857142854" fill="#D5A18E"/><path d="M 1179.11 190.18 A 30.43 30.43 0 0 0 1209.54 159.75 L 1179.11 159.75" fill="#c39080"/><path d="M 1148.68 190.18 A 30.43 30.43 0 0 1  1179.1100000000001 220.61 L 1148.68 190.18 A 30.43 30.43 0 0 0 1179.1100000000001 220.61" fill="#e2bcaf"/><circle cx="1194.3249999999998" cy="205.395" r="15.215" fill="#97665c"/><circle cx="1255.18" cy="190.18" r="30.43" fill="#e4c1b5"/><rect x="1300.8214285714287" y="159.75" width="60.857142857142854" height="60.857142857142854" fill="#D5A18E"/><path d="M 1300.82 190.18 A 30.43 30.43 0 0 0 1331.25 159.75 L 1300.82 159.75" fill="#6a3c38"/><path d="M 1376.89 159.75 A 60.86 60.86 0 0 1  1437.75 220.61 L 1376.89 159.75 A 60.86 60.86 0 0 0 1437.75 220.61" fill="#faedec"/><path d="M 1605.11 220.61 A 60.86 60.86 0 0 1  1665.9699999999998 159.75 L 1605.11 220.61 A 60.86 60.86 0 0 0 1665.9699999999998 159.75" fill="#96655b"/><rect x="7.607142857142858" y="235.82142857142858" width="60.857142857142854" height="60.857142857142854" fill="#D5A18E"/><path d="M 7.61 235.82 A 30.43 30.43 0 0 1  38.04 266.25 L 7.61 235.82 A 30.43 30.43 0 0 0 38.04 266.25" fill="#683a37"/><path d="M 38.04 266.25 A 30.43 30.43 0 0 0 68.47 235.82 L 38.04 235.82" fill="#ecd1ca"/><path d="M 7.61 296.68 A 30.43 30.43 0 0 1  38.04 266.25 L 38.04 296.68" fill="#bc897a"/><path d="M 38.04 296.68 A 30.43 30.43 0 0 1  68.47 266.25 L 38.04 296.68 A 30.43 30.43 0 0 0 68.47 266.25" fill="#6d3e3a"/><path d="M 311.89 296.68 A 60.86 60.86 0 0 1  372.75 235.82 L 311.89 296.68 A 60.86 60.86 0 0 0 372.75 235.82" fill="#9c6b60"/><rect x="387.96428571428567" y="235.82142857142858" width="60.857142857142854" height="60.857142857142854" fill="#D5A18E"/><circle cx="403.17499999999995" cy="251.035" r="15.215" fill="#f3deda"/><path d="M 387.96 296.68 A 30.43 30.43 0 0 1  418.39 266.25 L 387.96 296.68 A 30.43 30.43 0 0 0 418.39 266.25" fill="#ad7b6e"/><path d="M 418.39 296.68 A 30.43 30.43 0 0 1  448.82 266.25 L 418.39 296.68 A 30.43 30.43 0 0 0 448.82 266.25" fill="#9d6c61"/><circle cx="570.54" cy="266.25" r="30.43" fill="#84554d"/><circle cx="646.6099999999999" cy="266.25" r="30.43" fill="#ce9b89"/><circle cx="950.89" cy="266.25" r="30.43" fill="#73443f"/><path d="M 996.54 235.82 A 60.86 60.86 0 0 1  1057.3999999999999 296.68 L 996.54 235.82 A 60.86 60.86 0 0 0 1057.3999999999999 296.68" fill="#f4e1de"/><rect x="1148.6785714285713" y="235.82142857142858" width="60.857142857142854" height="60.857142857142854" fill="#D5A18E"/><circle cx="1163.895" cy="251.035" r="15.215" fill="#562928"/><circle cx="1194.3249999999998" cy="251.035" r="15.215" fill="#6e3f3b"/><path d="M 1179.11 266.25 A 30.43 30.43 0 0 0 1209.54 296.68 L 1209.54 266.25" fill="#e9cac1"/><circle cx="1255.18" cy="266.25" r="30.43" fill="#d4a08d"/><rect x="1300.8214285714287" y="235.82142857142858" width="60.857142857142854" height="60.857142857142854" fill="#D5A18E"/><path d="M 1300.82 266.25 A 30.43 30.43 0 0 1  1331.25 235.82 L 1300.82 266.25 A 30.43 30.43 0 0 0 1331.25 235.82" fill="#ab796c"/><circle cx="1316.0349999999999" cy="281.465" r="15.215" fill="#ecd0c8"/><path d="M 1331.25 266.25 A 30.43 30.43 0 0 1  1361.68 296.68 L 1331.25 266.25 A 30.43 30.43 0 0 0 1361.68 296.68" fill="#592b2a"/><rect x="1376.892857142857" y="235.82142857142858" width="60.857142857142854" height="60.857142857142854" fill="#D5A18E"/><circle cx="1392.105" cy="251.035" r="15.215" fill="#572a29"/><circle cx="1422.5349999999999" cy="281.465" r="15.215" fill="#e0b8aa"/><circle cx="1483.39" cy="266.25" r="30.43" fill="#ae7c6e"/><path d="M 1529.04 296.68 A 60.86 60.86 0 0 1  1589.8999999999999 235.82 L 1589.8999999999999 296.68" fill="#efd5cf"/><circle cx="38.04" cy="342.32" r="30.43" fill="#fdf4f5"/><rect x="235.82142857142858" y="311.8928571428571" width="60.857142857142854" height="60.857142857142854" fill="#D5A18E"/><circle cx="281.465" cy="327.10499999999996" r="15.215" fill="#e2bbae"/><path d="M 266.25 372.75 A 30.43 30.43 0 0 1  296.68 342.32 L 266.25 372.75 A 30.43 30.43 0 0 0 296.68 342.32" fill="#71423e"/><path d="M 311.89 372.75 A 60.86 60.86 0 0 1  372.75 311.89 L 311.89 372.75 A 60.86 60.86 0 0 0 372.75 311.89" fill="#fdf4f5"/><rect x="540.1071428571429" y="311.8928571428571" width="60.857142857142854" height="60.857142857142854" fill="#D5A18E"/><circle cx="555.325" cy="327.10499999999996" r="15.215" fill="#9e6d62"/><path d="M 540.11 342.32 A 30.43 30.43 0 0 1  570.54 372.75 L 540.11 342.32 A 30.43 30.43 0 0 0 570.54 372.75" fill="#f1dad5"/><path d="M 570.54 342.32 A 30.43 30.43 0 0 1  600.9699999999999 372.75 L 570.54 342.32 A 30.43 30.43 0 0 0 600.9699999999999 372.75" fill="#e7c7bc"/><path d="M 844.39 311.89 A 60.86 60.86 0 0 1  905.25 372.75 L 844.39 311.89 A 60.86 60.86 0 0 0 905.25 372.75" fill="#faeeed"/><path d="M 996.54 311.89 A 60.86 60.86 0 0 1  1057.3999999999999 372.75 L 996.54 311.89 A 60.86 60.86 0 0 0 1057.3999999999999 372.75" fill="#5b2d2c"/><rect x="1072.607142857143" y="311.8928571428571" width="60.857142857142854" height="60.857142857142854" fill="#D5A18E"/><path d="M 1103.04 311.89 A 30.43 30.43 0 0 1  1133.47 342.32 L 1103.04 311.89 A 30.43 30.43 0 0 0 1133.47 342.32" fill="#8e5e55"/><path d="M 1103.04 342.32 A 30.43 30.43 0 0 1 1133.47 372.75 L 1103.04 372.75" fill="#6f403c"/><rect x="1148.6785714285713" y="311.8928571428571" width="60.857142857142854" height="60.857142857142854" fill="#D5A18E"/><circle cx="1163.895" cy="327.10499999999996" r="15.215" fill="#522525"/><path d="M 1179.11 342.32 A 30.43 30.43 0 0 1  1209.54 311.89 L 1179.11 342.32 A 30.43 30.43 0 0 0 1209.54 311.89" fill="#ca9685"/><path d="M 1148.68 342.32 A 30.43 30.43 0 0 1  1179.1100000000001 372.75 L 1148.68 342.32 A 30.43 30.43 0 0 0 1179.1100000000001 372.75" fill="#ba8878"/><circle cx="1255.18" cy="342.32" r="30.43" fill="#aa786b"/><path d="M 1376.89 311.89 A 60.86 60.86 0 0 1  1437.75 372.75 L 1376.89 311.89 A 60.86 60.86 0 0 0 1437.75 372.75" fill="#d6a491"/><circle cx="1483.39" cy="342.32" r="30.43" fill="#efd6cf"/><rect x="1605.107142857143" y="311.8928571428571" width="60.857142857142854" height="60.857142857142854" fill="#D5A18E"/><path d="M 1635.54 311.89 A 30.43 30.43 0 0 1 1665.97 342.32 L 1635.54 342.32" fill="#f1dad4"/><path d="M 1635.54 372.75 A 30.43 30.43 0 0 1  1665.97 342.32 L 1665.97 372.75" fill="#e5c2b7"/><circle cx="266.25" cy="418.39" r="30.43" fill="#8c5c54"/><rect x="387.96428571428567" y="387.96428571428567" width="60.857142857142854" height="60.857142857142854" fill="#D5A18E"/><path d="M 387.96 387.96 A 30.43 30.43 0 0 0 418.39 418.39 L 418.39 387.96" fill="#f2ddd9"/><path d="M 418.39 448.82 A 30.43 30.43 0 0 1  448.82 418.39 L 418.39 448.82 A 30.43 30.43 0 0 0 448.82 418.39" fill="#d5a28f"/><rect x="464.0357142857143" y="387.96428571428567" width="60.857142857142854" height="60.857142857142854" fill="#D5A18E"/><path d="M 494.46 418.39 A 30.43 30.43 0 0 1  524.89 387.96 L 494.46 418.39 A 30.43 30.43 0 0 0 524.89 387.96" fill="#7e4e48"/><circle cx="479.255" cy="433.60499999999996" r="15.215" fill="#f1dad4"/><path d="M 494.46 448.82 A 30.43 30.43 0 0 1  524.89 418.39 L 524.89 448.82" fill="#d8a796"/><path d="M 616.18 387.96 A 60.86 60.86 0 0 1  677.04 448.82 L 616.18 387.96 A 60.86 60.86 0 0 0 677.04 448.82" fill="#d09c8a"/><path d="M 692.25 387.96 A 60.86 60.86 0 0 1  753.11 448.82 L 692.25 387.96 A 60.86 60.86 0 0 0 753.11 448.82" fill="#d7a592"/><path d="M 920.46 448.82 A 60.86 60.86 0 0 0 981.32 387.96 L 920.46 387.96" fill="#e8c8be"/><rect x="996.5357142857143" y="387.96428571428567" width="60.857142857142854" height="60.857142857142854" fill="#D5A18E"/><circle cx="1011.755" cy="403.17499999999995" r="15.215" fill="#cc9887"/><circle cx="1042.175" cy="403.17499999999995" r="15.215" fill="#e5c2b6"/><path d="M 1026.96 448.82 A 30.43 30.43 0 0 0 1057.39 418.39 L 1026.96 418.39" fill="#e5c1b6"/><rect x="1148.6785714285713" y="387.96428571428567" width="60.857142857142854" height="60.857142857142854" fill="#D5A18E"/><path d="M 1148.68 418.39 A 30.43 30.43 0 0 1  1179.1100000000001 387.96 L 1148.68 418.39 A 30.43 30.43 0 0 0 1179.1100000000001 387.96" fill="#e1b9ac"/><circle cx="1163.895" cy="433.60499999999996" r="15.215" fill="#8d5d54"/><rect x="1224.75" y="387.96428571428567" width="60.857142857142854" height="60.857142857142854" fill="#D5A18E"/><circle cx="1239.965" cy="403.17499999999995" r="15.215" fill="#a06f63"/><path d="M 1255.18 418.39 A 30.43 30.43 0 0 1  1285.6100000000001 387.96 L 1255.18 418.39 A 30.43 30.43 0 0 0 1285.6100000000001 387.96" fill="#f6e4e1"/><path d="M 1224.75 448.82 A 30.43 30.43 0 0 1  1255.18 418.39 L 1224.75 448.82 A 30.43 30.43 0 0 0 1255.18 418.39" fill="#faeceb"/><path d="M 1255.18 418.39 A 30.43 30.43 0 0 0 1285.6100000000001 448.82 L 1285.6100000000001 418.39" fill="#f0d9d4"/><rect x="1376.892857142857" y="387.96428571428567" width="60.857142857142854" height="60.857142857142854" fill="#D5A18E"/><path d="M 1376.89 418.39 A 30.43 30.43 0 0 1  1407.3200000000002 387.96 L 1376.89 418.39 A 30.43 30.43 0 0 0 1407.3200000000002 387.96" fill="#fbf0ef"/><path d="M 1407.32 448.82 A 30.43 30.43 0 0 1  1437.75 418.39 L 1407.32 448.82 A 30.43 30.43 0 0 0 1437.75 418.39" fill="#d6a491"/><path d="M 1452.96 448.82 A 60.86 60.86 0 0 1  1513.82 387.96 L 1452.96 448.82 A 60.86 60.86 0 0 0 1513.82 387.96" fill="#e9c9c0"/><circle cx="1559.47" cy="418.39" r="30.43" fill="#fcf1f1"/><path d="M 1605.11 448.82 A 60.86 60.86 0 0 1  1665.9699999999998 387.96 L 1665.9699999999998 448.82" fill="#e7c7bd"/><path d="M 7.61 524.9 A 60.86 60.86 0 0 0 68.47 464.04 L 7.61 464.04" fill="#b48273"/><rect x="83.67857142857143" y="464.0357142857143" width="60.857142857142854" height="60.857142857142854" fill="#D5A18E"/><path d="M 83.68 494.47 A 30.43 30.43 0 0 0 114.11000000000001 464.04 L 83.68 464.04" fill="#b68475"/><circle cx="129.325" cy="479.255" r="15.215" fill="#c79382"/><path d="M 83.68 524.89 A 30.43 30.43 0 0 1  114.11000000000001 494.46 L 114.11000000000001 524.89" fill="#6c3d39"/><path d="M 114.11 494.46 A 30.43 30.43 0 0 1  144.54 524.89 L 114.11 494.46 A 30.43 30.43 0 0 0 144.54 524.89" fill="#a9786b"/><path d="M 235.82 464.04 A 60.86 60.86 0 0 1  296.68 524.9 L 235.82 464.04 A 60.86 60.86 0 0 0 296.68 524.9" fill="#deb4a5"/><rect x="311.8928571428571" y="464.0357142857143" width="60.857142857142854" height="60.857142857142854" fill="#D5A18E"/><circle cx="327.10499999999996" cy="479.255" r="15.215" fill="#f1dad4"/><path d="M 311.89 494.46 A 30.43 30.43 0 0 1  342.32 524.89 L 311.89 494.46 A 30.43 30.43 0 0 0 342.32 524.89" fill="#ddb2a3"/><circle cx="494.47" cy="494.47" r="30.43" fill="#d8a795"/><rect x="540.1071428571429" y="464.0357142857143" width="60.857142857142854" height="60.857142857142854" fill="#D5A18E"/><path d="M 540.11 464.04 A 30.43 30.43 0 0 1  570.54 494.47 L 540.11 464.04 A 30.43 30.43 0 0 0 570.54 494.47" fill="#f5e3e0"/><path d="M 570.54 494.47 A 30.43 30.43 0 0 1  600.9699999999999 464.04 L 570.54 494.47 A 30.43 30.43 0 0 0 600.9699999999999 464.04" fill="#e7c5bb"/><path d="M 540.11 524.89 A 30.43 30.43 0 0 1  570.54 494.46 L 540.11 524.89 A 30.43 30.43 0 0 0 570.54 494.46" fill="#f0d8d2"/><path d="M 570.54 494.46 A 30.43 30.43 0 0 1  600.9699999999999 524.89 L 570.54 494.46 A 30.43 30.43 0 0 0 600.9699999999999 524.89" fill="#dcae9f"/><rect x="616.1785714285714" y="464.0357142857143" width="60.857142857142854" height="60.857142857142854" fill="#D5A18E"/><path d="M 616.18 464.04 A 30.43 30.43 0 0 0 646.6099999999999 494.47 L 646.6099999999999 464.04" fill="#e4bfb3"/><path d="M 646.61 494.47 A 30.43 30.43 0 0 1  677.04 464.04 L 646.61 494.47 A 30.43 30.43 0 0 0 677.04 464.04" fill="#683936"/><circle cx="631.395" cy="509.67499999999995" r="15.215" fill="#faeeed"/><path d="M 646.61 524.89 A 30.43 30.43 0 0 1  677.04 494.46 L 646.61 524.89 A 30.43 30.43 0 0 0 677.04 494.46" fill="#5a2c2b"/><rect x="692.25" y="464.0357142857143" width="60.857142857142854" height="60.857142857142854" fill="#D5A18E"/><path d="M 722.68 494.47 A 30.43 30.43 0 0 1  753.1099999999999 464.04 L 722.68 494.47 A 30.43 30.43 0 0 0 753.1099999999999 464.04" fill="#f8e8e6"/><path d="M 692.25 494.46 A 30.43 30.43 0 0 1  722.68 524.89 L 692.25 494.46 A 30.43 30.43 0 0 0 722.68 524.89" fill="#693a37"/><path d="M 722.68 524.89 A 30.43 30.43 0 0 1  753.1099999999999 494.46 L 722.68 524.89 A 30.43 30.43 0 0 0 753.1099999999999 494.46" fill="#eed4ce"/><rect x="768.3214285714286" y="464.0357142857143" width="60.857142857142854" height="60.857142857142854" fill="#D5A18E"/><path d="M 768.32 494.47 A 30.43 30.43 0 0 0 798.75 464.04 L 768.32 464.04" fill="#daac9b"/><path d="M 798.75 524.89 A 30.43 30.43 0 0 1  829.18 494.46 L 798.75 524.89 A 30.43 30.43 0 0 0 829.18 494.46" fill="#d6a491"/><path d="M 996.54 524.9 A 60.86 60.86 0 0 1  1057.3999999999999 464.04 L 1057.3999999999999 524.9" fill="#9a695e"/><rect x="1300.8214285714287" y="464.0357142857143" width="60.857142857142854" height="60.857142857142854" fill="#D5A18E"/><path d="M 1300.82 464.04 A 30.43 30.43 0 0 1  1331.25 494.47 L 1300.82 464.04 A 30.43 30.43 0 0 0 1331.25 494.47" fill="#683a36"/><path d="M 1331.25 494.47 A 30.43 30.43 0 0 0 1361.68 464.04 L 1331.25 464.04" fill="#ac7b6d"/><path d="M 1331.25 524.89 A 30.43 30.43 0 0 1  1361.68 494.46 L 1331.25 524.89 A 30.43 30.43 0 0 0 1361.68 494.46" fill="#ddb1a1"/><path d="M 1452.96 524.9 A 60.86 60.86 0 0 1  1513.82 464.04 L 1452.96 524.9 A 60.86 60.86 0 0 0 1513.82 464.04" fill="#faedec"/><rect x="7.607142857142858" y="540.1071428571429" width="60.857142857142854" height="60.857142857142854" fill="#D5A18E"/><path d="M 7.61 540.11 A 30.43 30.43 0 0 0 38.04 570.54 L 38.04 540.11" fill="#9b6a60"/><path d="M 7.61 570.54 A 30.43 30.43 0 0 1 38.04 600.9699999999999 L 7.61 600.9699999999999" fill="#c18e7e"/><path d="M 38.04 570.54 A 30.43 30.43 0 0 1  68.47 600.9699999999999 L 38.04 570.54 A 30.43 30.43 0 0 0 68.47 600.9699999999999" fill="#eaccc3"/><path d="M 83.68 600.97 A 60.86 60.86 0 0 1  144.54000000000002 540.11 L 83.68 600.97 A 60.86 60.86 0 0 0 144.54000000000002 540.11" fill="#f2dcd7"/><path d="M 159.75 540.11 A 60.86 60.86 0 0 1  220.61 600.97 L 159.75 540.11 A 60.86 60.86 0 0 0 220.61 600.97" fill="#85564e"/><path d="M 235.82 540.11 A 60.86 60.86 0 0 1 296.68 600.97 L 235.82 600.97" fill="#f8e9e8"/><path d="M 311.89 600.97 A 60.86 60.86 0 0 1  372.75 540.11 L 311.89 600.97 A 60.86 60.86 0 0 0 372.75 540.11" fill="#e1b9ac"/><path d="M 387.96 540.11 A 60.86 60.86 0 0 1  448.82 600.97 L 387.96 540.11 A 60.86 60.86 0 0 0 448.82 600.97" fill="#73443f"/><rect x="464.0357142857143" y="540.1071428571429" width="60.857142857142854" height="60.857142857142854" fill="#D5A18E"/><circle cx="479.255" cy="555.325" r="15.215" fill="#d19d8b"/><path d="M 494.46 540.11 A 30.43 30.43 0 0 1  524.89 570.54 L 494.46 540.11 A 30.43 30.43 0 0 0 524.89 570.54" fill="#bb8979"/><path d="M 464.04 570.54 A 30.43 30.43 0 0 1  494.47 600.9699999999999 L 464.04 570.54 A 30.43 30.43 0 0 0 494.47 600.9699999999999" fill="#71423e"/><rect x="540.1071428571429" y="540.1071428571429" width="60.857142857142854" height="60.857142857142854" fill="#D5A18E"/><circle cx="585.755" cy="555.325" r="15.215" fill="#edd2cb"/><path d="M 540.11 600.9699999999999 A 30.43 30.43 0 0 1  570.54 570.54 L 540.11 600.9699999999999 A 30.43 30.43 0 0 0 570.54 570.54" fill="#71423d"/><rect x="692.25" y="540.1071428571429" width="60.857142857142854" height="60.857142857142854" fill="#D5A18E"/><path d="M 722.68 570.54 A 30.43 30.43 0 0 0 753.1099999999999 540.11 L 722.68 540.11" fill="#c49181"/><path d="M 768.32 540.11 A 60.86 60.86 0 0 0 829.1800000000001 600.97 L 829.1800000000001 540.11" fill="#d8a896"/><path d="M 844.39 600.97 A 60.86 60.86 0 0 0 905.25 540.11 L 844.39 540.11" fill="#99685e"/><path d="M 920.46 600.97 A 60.86 60.86 0 0 1  981.32 540.11 L 981.32 600.97" fill="#7d4e47"/><rect x="1072.607142857143" y="540.1071428571429" width="60.857142857142854" height="60.857142857142854" fill="#D5A18E"/><path d="M 1072.61 570.54 A 30.43 30.43 0 0 0 1103.04 600.9699999999999 L 1103.04 570.54" fill="#c99685"/><path d="M 1103.04 600.9699999999999 A 30.43 30.43 0 0 1  1133.47 570.54 L 1103.04 600.9699999999999 A 30.43 30.43 0 0 0 1133.47 570.54" fill="#5c2e2d"/><path d="M 1148.68 600.97 A 60.86 60.86 0 0 1  1209.54 540.11 L 1148.68 600.97 A 60.86 60.86 0 0 0 1209.54 540.11" fill="#ac7a6d"/><circle cx="1255.18" cy="570.54" r="30.43" fill="#af7d70"/><path d="M 1300.82 540.11 A 60.86 60.86 0 0 1  1361.6799999999998 600.97 L 1300.82 540.11 A 60.86 60.86 0 0 0 1361.6799999999998 600.97" fill="#87574f"/><path d="M 1376.89 540.11 A 60.86 60.86 0 0 1 1437.75 600.97 L 1376.89 600.97" fill="#d8a796"/><path d="M 1452.96 540.11 A 60.86 60.86 0 0 1  1513.82 600.97 L 1452.96 540.11 A 60.86 60.86 0 0 0 1513.82 600.97" fill="#fcf0f0"/><rect x="1605.107142857143" y="540.1071428571429" width="60.857142857142854" height="60.857142857142854" fill="#D5A18E"/><path d="M 1605.11 540.11 A 30.43 30.43 0 0 0 1635.54 570.54 L 1635.54 540.11" fill="#b78576"/><path d="M 1635.54 570.54 A 30.43 30.43 0 0 1  1665.97 540.11 L 1665.97 570.54" fill="#dcb0a1"/><path d="M 1605.11 600.9699999999999 A 30.43 30.43 0 0 1  1635.54 570.54 L 1635.54 600.9699999999999" fill="#fef4f5"/><path d="M 7.61 616.18 A 60.86 60.86 0 0 1  68.47 677.04 L 7.61 616.18 A 60.86 60.86 0 0 0 68.47 677.04" fill="#e2bbae"/><rect x="159.75" y="616.1785714285714" width="60.857142857142854" height="60.857142857142854" fill="#D5A18E"/><path d="M 159.75 616.18 A 30.43 30.43 0 0 1  190.18 646.6099999999999 L 159.75 616.18 A 30.43 30.43 0 0 0 190.18 646.6099999999999" fill="#754641"/><path d="M 190.18 646.6099999999999 A 30.43 30.43 0 0 1  220.61 616.18 L 190.18 646.6099999999999 A 30.43 30.43 0 0 0 220.61 616.18" fill="#7f5049"/><path d="M 159.75 646.61 A 30.43 30.43 0 0 1 190.18 677.04 L 159.75 677.04" fill="#b68375"/><path d="M 190.18 646.61 A 30.43 30.43 0 0 1 220.61 677.04 L 190.18 677.04" fill="#bb8979"/><rect x="311.8928571428571" y="616.1785714285714" width="60.857142857142854" height="60.857142857142854" fill="#D5A18E"/><circle cx="357.53499999999997" cy="631.395" r="15.215" fill="#ac7a6d"/><path d="M 311.89 646.61 A 30.43 30.43 0 0 0 342.32 677.04 L 342.32 646.61" fill="#c59281"/><rect x="540.1071428571429" y="616.1785714285714" width="60.857142857142854" height="60.857142857142854" fill="#D5A18E"/><circle cx="585.755" cy="661.825" r="15.215" fill="#f2ddd8"/><rect x="616.1785714285714" y="616.1785714285714" width="60.857142857142854" height="60.857142857142854" fill="#D5A18E"/><path d="M 616.18 646.6099999999999 A 30.43 30.43 0 0 1  646.6099999999999 616.18 L 616.18 646.6099999999999 A 30.43 30.43 0 0 0 646.6099999999999 616.18" fill="#d8a795"/><path d="M 646.61 616.18 A 30.43 30.43 0 0 1  677.04 646.6099999999999 L 646.61 616.18 A 30.43 30.43 0 0 0 677.04 646.6099999999999" fill="#f1dbd6"/><circle cx="631.395" cy="661.825" r="15.215" fill="#fdf3f3"/><path d="M 646.61 646.61 A 30.43 30.43 0 0 1  677.04 677.04 L 646.61 646.61 A 30.43 30.43 0 0 0 677.04 677.04" fill="#673835"/><rect x="692.25" y="616.1785714285714" width="60.857142857142854" height="60.857142857142854" fill="#D5A18E"/><path d="M 692.25 616.18 A 30.43 30.43 0 0 1  722.68 646.6099999999999 L 692.25 616.18 A 30.43 30.43 0 0 0 722.68 646.6099999999999" fill="#ebcec6"/><path d="M 722.68 616.18 A 30.43 30.43 0 0 1  753.1099999999999 646.6099999999999 L 722.68 616.18 A 30.43 30.43 0 0 0 753.1099999999999 646.6099999999999" fill="#e9c9c0"/><circle cx="707.465" cy="661.825" r="15.215" fill="#7d4d47"/><path d="M 722.68 646.61 A 30.43 30.43 0 0 1  753.1099999999999 677.04 L 722.68 646.61 A 30.43 30.43 0 0 0 753.1099999999999 677.04" fill="#dbae9e"/><rect x="768.3214285714286" y="616.1785714285714" width="60.857142857142854" height="60.857142857142854" fill="#D5A18E"/><circle cx="783.5350000000001" cy="631.395" r="15.215" fill="#e2bcb0"/><circle cx="813.965" cy="631.395" r="15.215" fill="#6b3d39"/><circle cx="813.965" cy="661.825" r="15.215" fill="#dbad9d"/><circle cx="874.8199999999999" cy="646.6099999999999" r="30.43" fill="#9a695f"/><rect x="920.4642857142858" y="616.1785714285714" width="60.857142857142854" height="60.857142857142854" fill="#D5A18E"/><path d="M 920.46 616.18 A 30.43 30.43 0 0 1  950.89 646.6099999999999 L 920.46 616.18 A 30.43 30.43 0 0 0 950.89 646.6099999999999" fill="#94645a"/><path d="M 950.89 646.6099999999999 A 30.43 30.43 0 0 1  981.3199999999999 616.18 L 950.89 646.6099999999999 A 30.43 30.43 0 0 0 981.3199999999999 616.18" fill="#97675d"/><circle cx="966.105" cy="661.825" r="15.215" fill="#f0d8d2"/><circle cx="1026.97" cy="646.6099999999999" r="30.43" fill="#8c5c53"/><rect x="1300.8214285714287" y="616.1785714285714" width="60.857142857142854" height="60.857142857142854" fill="#D5A18E"/><path d="M 1300.82 646.6099999999999 A 30.43 30.43 0 0 1  1331.25 616.18 L 1300.82 646.6099999999999 A 30.43 30.43 0 0 0 1331.25 616.18" fill="#e9c9c0"/><path d="M 1331.25 646.6099999999999 A 30.43 30.43 0 0 1  1361.68 616.18 L 1331.25 646.6099999999999 A 30.43 30.43 0 0 0 1361.68 616.18" fill="#a27065"/><circle cx="1316.0349999999999" cy="661.825" r="15.215" fill="#daab9b"/><path d="M 1331.25 646.61 A 30.43 30.43 0 0 1  1361.68 677.04 L 1331.25 646.61 A 30.43 30.43 0 0 0 1361.68 677.04" fill="#f8e9e7"/><rect x="1376.892857142857" y="616.1785714285714" width="60.857142857142854" height="60.857142857142854" fill="#D5A18E"/><circle cx="1422.5349999999999" cy="661.825" r="15.215" fill="#683a37"/><path d="M 1452.96 616.18 A 60.86 60.86 0 0 1  1513.82 677.04 L 1452.96 616.18 A 60.86 60.86 0 0 0 1513.82 677.04" fill="#81524b"/><path d="M 1529.04 677.04 A 60.86 60.86 0 0 1  1589.8999999999999 616.18 L 1529.04 677.04 A 60.86 60.86 0 0 0 1589.8999999999999 616.18" fill="#c89584"/><path d="M 1605.11 677.04 A 60.86 60.86 0 0 1  1665.9699999999998 616.18 L 1605.11 677.04 A 60.86 60.86 0 0 0 1665.9699999999998 616.18" fill="#fef5f6"/><rect x="159.75" y="692.25" width="60.857142857142854" height="60.857142857142854" fill="#D5A18E"/><path d="M 159.75 722.68 A 30.43 30.43 0 0 1  190.18 692.25 L 159.75 722.68 A 30.43 30.43 0 0 0 190.18 692.25" fill="#ae7c6f"/><circle cx="205.395" cy="707.465" r="15.215" fill="#fbefef"/><path d="M 159.75 753.1099999999999 A 30.43 30.43 0 0 1  190.18 722.68 L 159.75 753.1099999999999 A 30.43 30.43 0 0 0 190.18 722.68" fill="#fcf1f1"/><path d="M 190.18 722.68 A 30.43 30.43 0 0 1  220.61 753.1099999999999 L 190.18 722.68 A 30.43 30.43 0 0 0 220.61 753.1099999999999" fill="#ac7a6d"/><rect x="235.82142857142858" y="692.25" width="60.857142857142854" height="60.857142857142854" fill="#D5A18E"/><path d="M 266.25 692.25 A 30.43 30.43 0 0 1  296.68 722.68 L 266.25 692.25 A 30.43 30.43 0 0 0 296.68 722.68" fill="#e8c9bf"/><path d="M 266.25 753.1099999999999 A 30.43 30.43 0 0 0 296.68 722.68 L 266.25 722.68" fill="#f6e4e2"/><rect x="311.8928571428571" y="692.25" width="60.857142857142854" height="60.857142857142854" fill="#D5A18E"/><path d="M 311.89 692.25 A 30.43 30.43 0 0 0 342.32 722.68 L 342.32 692.25" fill="#d8a795"/><circle cx="357.53499999999997" cy="707.465" r="15.215" fill="#f7e7e5"/><path d="M 311.89 722.68 A 30.43 30.43 0 0 1 342.32 753.1099999999999 L 311.89 753.1099999999999" fill="#7f5049"/><circle cx="357.53499999999997" cy="737.895" r="15.215" fill="#82524b"/><path d="M 387.96 753.11 A 60.86 60.86 0 0 1  448.82 692.25 L 387.96 753.11 A 60.86 60.86 0 0 0 448.82 692.25" fill="#b38072"/><path d="M 540.11 692.25 A 60.86 60.86 0 0 1 600.97 753.11 L 540.11 753.11" fill="#a9786b"/><circle cx="646.6099999999999" cy="722.68" r="30.43" fill="#eaccc4"/><path d="M 692.25 753.11 A 60.86 60.86 0 0 1  753.11 692.25 L 692.25 753.11 A 60.86 60.86 0 0 0 753.11 692.25" fill="#754641"/><rect x="768.3214285714286" y="692.25" width="60.857142857142854" height="60.857142857142854" fill="#D5A18E"/><circle cx="783.5350000000001" cy="707.465" r="15.215" fill="#ebcfc7"/><path d="M 798.75 722.68 A 30.43 30.43 0 0 0 829.18 692.25 L 798.75 692.25" fill="#d8a795"/><circle cx="783.5350000000001" cy="737.895" r="15.215" fill="#e0b7a9"/><path d="M 798.75 722.68 A 30.43 30.43 0 0 1  829.18 753.1099999999999 L 798.75 722.68 A 30.43 30.43 0 0 0 829.18 753.1099999999999" fill="#d4a08d"/><rect x="920.4642857142858" y="692.25" width="60.857142857142854" height="60.857142857142854" fill="#D5A18E"/><path d="M 920.46 753.1099999999999 A 30.43 30.43 0 0 1  950.89 722.68 L 920.46 753.1099999999999 A 30.43 30.43 0 0 0 950.89 722.68" fill="#7a4b45"/><rect x="996.5357142857143" y="692.25" width="60.857142857142854" height="60.857142857142854" fill="#D5A18E"/><path d="M 996.54 692.25 A 30.43 30.43 0 0 1  1026.97 722.68 L 996.54 692.25 A 30.43 30.43 0 0 0 1026.97 722.68" fill="#5d302e"/><path d="M 996.54 722.68 A 30.43 30.43 0 0 1  1026.97 753.1099999999999 L 996.54 722.68 A 30.43 30.43 0 0 0 1026.97 753.1099999999999" fill="#ab796c"/><circle cx="1042.175" cy="737.895" r="15.215" fill="#552827"/><circle cx="1179.1100000000001" cy="722.68" r="30.43" fill="#e4c0b4"/><circle cx="1255.18" cy="722.68" r="30.43" fill="#83534c"/><rect x="1300.8214285714287" y="692.25" width="60.857142857142854" height="60.857142857142854" fill="#D5A18E"/><circle cx="1316.0349999999999" cy="707.465" r="15.215" fill="#f3deda"/><circle cx="1346.465" cy="707.465" r="15.215" fill="#95655b"/><circle cx="1316.0349999999999" cy="737.895" r="15.215" fill="#f1dad4"/><rect x="1452.9642857142858" y="692.25" width="60.857142857142854" height="60.857142857142854" fill="#D5A18E"/><circle cx="1468.175" cy="707.465" r="15.215" fill="#fdf2f3"/><path d="M 1483.39 753.1099999999999 A 30.43 30.43 0 0 1  1513.8200000000002 722.68 L 1483.39 753.1099999999999 A 30.43 30.43 0 0 0 1513.8200000000002 722.68" fill="#e6c4ba"/><rect x="1529.0357142857142" y="692.25" width="60.857142857142854" height="60.857142857142854" fill="#D5A18E"/><path d="M 1529.04 753.1099999999999 A 30.43 30.43 0 0 1  1559.47 722.68 L 1529.04 753.1099999999999 A 30.43 30.43 0 0 0 1559.47 722.68" fill="#d7a593"/><circle cx="1574.675" cy="737.895" r="15.215" fill="#f7e7e5"/><path d="M 1605.11 753.11 A 60.86 60.86 0 0 1  1665.9699999999998 692.25 L 1605.11 753.11 A 60.86 60.86 0 0 0 1665.9699999999998 692.25" fill="#512424"/><rect x="159.75" y="768.3214285714286" width="60.857142857142854" height="60.857142857142854" fill="#D5A18E"/><path d="M 159.75 768.32 A 30.43 30.43 0 0 1  190.18 798.75 L 159.75 768.32 A 30.43 30.43 0 0 0 190.18 798.75" fill="#eaccc3"/><path d="M 190.18 768.32 A 30.43 30.43 0 0 1  220.61 798.75 L 190.18 768.32 A 30.43 30.43 0 0 0 220.61 798.75" fill="#ebcfc7"/><path d="M 159.75 798.75 A 30.43 30.43 0 0 1  190.18 829.18 L 159.75 798.75 A 30.43 30.43 0 0 0 190.18 829.18" fill="#ce9b89"/><path d="M 190.18 798.75 A 30.43 30.43 0 0 1  220.61 829.18 L 190.18 798.75 A 30.43 30.43 0 0 0 220.61 829.18" fill="#e1b9ac"/><rect x="387.96428571428567" y="768.3214285714286" width="60.857142857142854" height="60.857142857142854" fill="#D5A18E"/><circle cx="403.17499999999995" cy="783.5350000000001" r="15.215" fill="#592b2a"/><path d="M 418.39 768.32 A 30.43 30.43 0 0 1  448.82 798.75 L 418.39 768.32 A 30.43 30.43 0 0 0 448.82 798.75" fill="#deb3a5"/><path d="M 387.96 829.18 A 30.43 30.43 0 0 1  418.39 798.75 L 387.96 829.18 A 30.43 30.43 0 0 0 418.39 798.75" fill="#ddb2a3"/><circle cx="433.60499999999996" cy="813.965" r="15.215" fill="#916157"/><path d="M 540.11 768.32 A 60.86 60.86 0 0 1  600.97 829.1800000000001 L 540.11 768.32 A 60.86 60.86 0 0 0 600.97 829.1800000000001" fill="#c08d7d"/><rect x="768.3214285714286" y="768.3214285714286" width="60.857142857142854" height="60.857142857142854" fill="#D5A18E"/><path d="M 768.32 768.32 A 30.43 30.43 0 0 0 798.75 798.75 L 798.75 768.32" fill="#daab9b"/><circle cx="813.965" cy="783.5350000000001" r="15.215" fill="#ad7b6e"/><circle cx="783.5350000000001" cy="813.965" r="15.215" fill="#f2dcd7"/><circle cx="813.965" cy="813.965" r="15.215" fill="#83544d"/><path d="M 996.54 829.1800000000001 A 60.86 60.86 0 0 1  1057.3999999999999 768.32 L 996.54 829.1800000000001 A 60.86 60.86 0 0 0 1057.3999999999999 768.32" fill="#eccfc8"/><rect x="1072.607142857143" y="768.3214285714286" width="60.857142857142854" height="60.857142857142854" fill="#D5A18E"/><circle cx="1118.2549999999999" cy="783.5350000000001" r="15.215" fill="#e0b7a9"/><circle cx="1087.8249999999998" cy="813.965" r="15.215" fill="#f2dcd7"/><rect x="1148.6785714285713" y="768.3214285714286" width="60.857142857142854" height="60.857142857142854" fill="#D5A18E"/><path d="M 1148.68 768.32 A 30.43 30.43 0 0 1  1179.1100000000001 798.75 L 1148.68 768.32 A 30.43 30.43 0 0 0 1179.1100000000001 798.75" fill="#e5c2b7"/><path d="M 1179.11 798.75 A 30.43 30.43 0 0 1  1209.54 768.32 L 1179.11 798.75 A 30.43 30.43 0 0 0 1209.54 768.32" fill="#83534c"/><path d="M 1148.68 798.75 A 30.43 30.43 0 0 0 1179.1100000000001 829.18 L 1179.1100000000001 798.75" fill="#7c4d47"/><circle cx="1194.3249999999998" cy="813.965" r="15.215" fill="#ddb2a3"/><rect x="1224.75" y="768.3214285714286" width="60.857142857142854" height="60.857142857142854" fill="#D5A18E"/><path d="M 1255.18 798.75 A 30.43 30.43 0 0 1  1285.6100000000001 768.32 L 1255.18 798.75 A 30.43 30.43 0 0 0 1285.6100000000001 768.32" fill="#562928"/><path d="M 1255.18 798.75 A 30.43 30.43 0 0 1  1285.6100000000001 829.18 L 1255.18 798.75 A 30.43 30.43 0 0 0 1285.6100000000001 829.18" fill="#70413d"/><path d="M 1452.96 829.1800000000001 A 60.86 60.86 0 0 1  1513.82 768.32 L 1452.96 829.1800000000001 A 60.86 60.86 0 0 0 1513.82 768.32" fill="#8a5a52"/><rect x="1529.0357142857142" y="768.3214285714286" width="60.857142857142854" height="60.857142857142854" fill="#D5A18E"/><path d="M 1559.46 768.32 A 30.43 30.43 0 0 0 1589.89 798.75 L 1589.89 768.32" fill="#e3beb2"/><path d="M 1529.04 829.18 A 30.43 30.43 0 0 0 1559.47 798.75 L 1529.04 798.75" fill="#9c6b61"/><path d="M 1559.46 829.18 A 30.43 30.43 0 0 1  1589.89 798.75 L 1589.89 829.18" fill="#562928"/><path d="M 159.75 905.25 A 60.86 60.86 0 0 1  220.61 844.39 L 159.75 905.25 A 60.86 60.86 0 0 0 220.61 844.39" fill="#f4e0dc"/><rect x="235.82142857142858" y="844.3928571428571" width="60.857142857142854" height="60.857142857142854" fill="#D5A18E"/><path d="M 266.25 844.39 A 30.43 30.43 0 0 1  296.68 874.8199999999999 L 266.25 844.39 A 30.43 30.43 0 0 0 296.68 874.8199999999999" fill="#653734"/><path d="M 235.82 874.82 A 30.43 30.43 0 0 1 266.25 905.25 L 235.82 905.25" fill="#95655b"/><circle cx="342.32" cy="874.8199999999999" r="30.43" fill="#cb9786"/><path d="M 540.11 905.25 A 60.86 60.86 0 0 1  600.97 844.39 L 540.11 905.25 A 60.86 60.86 0 0 0 600.97 844.39" fill="#7a4b45"/><circle cx="646.6099999999999" cy="874.8199999999999" r="30.43" fill="#97665c"/><path d="M 692.25 844.39 A 60.86 60.86 0 0 0 753.11 905.25 L 753.11 844.39" fill="#b38173"/><circle cx="874.8199999999999" cy="874.8199999999999" r="30.43" fill="#99685e"/><rect x="920.4642857142858" y="844.3928571428571" width="60.857142857142854" height="60.857142857142854" fill="#D5A18E"/><circle cx="935.6750000000001" cy="859.605" r="15.215" fill="#c49180"/><path d="M 950.89 844.39 A 30.43 30.43 0 0 1  981.3199999999999 874.8199999999999 L 950.89 844.39 A 30.43 30.43 0 0 0 981.3199999999999 874.8199999999999" fill="#e3bfb3"/><circle cx="1026.97" cy="874.8199999999999" r="30.43" fill="#ce9b89"/><rect x="1072.607142857143" y="844.3928571428571" width="60.857142857142854" height="60.857142857142854" fill="#D5A18E"/><path d="M 1072.61 844.39 A 30.43 30.43 0 0 0 1103.04 874.8199999999999 L 1103.04 844.39" fill="#f0d8d2"/><path d="M 1103.04 844.39 A 30.43 30.43 0 0 1  1133.47 874.8199999999999 L 1103.04 844.39 A 30.43 30.43 0 0 0 1133.47 874.8199999999999" fill="#daab9a"/><path d="M 1072.61 874.82 A 30.43 30.43 0 0 1 1103.04 905.25 L 1072.61 905.25" fill="#7c4c46"/><rect x="1224.75" y="844.3928571428571" width="60.857142857142854" height="60.857142857142854" fill="#D5A18E"/><circle cx="1239.965" cy="859.605" r="15.215" fill="#e0b8aa"/><path d="M 1224.75 874.82 A 30.43 30.43 0 0 1  1255.18 905.25 L 1224.75 874.82 A 30.43 30.43 0 0 0 1255.18 905.25" fill="#ecd1c9"/><circle cx="1270.395" cy="890.0350000000001" r="15.215" fill="#ddb2a3"/><circle cx="1331.25" cy="874.8199999999999" r="30.43" fill="#d9a998"/><circle cx="1407.3200000000002" cy="874.8199999999999" r="30.43" fill="#a8766a"/><rect x="1529.0357142857142" y="844.3928571428571" width="60.857142857142854" height="60.857142857142854" fill="#D5A18E"/><path d="M 1529.04 905.25 A 30.43 30.43 0 0 1  1559.47 874.82 L 1529.04 905.25 A 30.43 30.43 0 0 0 1559.47 874.82" fill="#f9ebea"/><rect x="1605.107142857143" y="844.3928571428571" width="60.857142857142854" height="60.857142857142854" fill="#D5A18E"/><path d="M 1605.11 874.8199999999999 A 30.43 30.43 0 0 0 1635.54 844.39 L 1605.11 844.39" fill="#eccfc7"/><circle cx="1650.7549999999999" cy="859.605" r="15.215" fill="#f4e1dd"/><circle cx="1620.3249999999998" cy="890.0350000000001" r="15.215" fill="#bf8c7c"/><path d="M 1635.54 874.82 A 30.43 30.43 0 0 1 1665.97 905.25 L 1635.54 905.25" fill="#f3dfda"/><rect x="7.607142857142858" y="920.4642857142858" width="60.857142857142854" height="60.857142857142854" fill="#D5A18E"/><circle cx="22.825" cy="935.6750000000001" r="15.215" fill="#e6c4b9"/><path d="M 38.04 981.3199999999999 A 30.43 30.43 0 0 1  68.47 950.89 L 38.04 981.3199999999999 A 30.43 30.43 0 0 0 68.47 950.89" fill="#e4bfb3"/><path d="M 159.75 920.46 A 60.86 60.86 0 0 1  220.61 981.32 L 159.75 920.46 A 60.86 60.86 0 0 0 220.61 981.32" fill="#643633"/><path d="M 311.89 981.32 A 60.86 60.86 0 0 0 372.75 920.46 L 311.89 920.46" fill="#fdf3f4"/><rect x="464.0357142857143" y="920.4642857142858" width="60.857142857142854" height="60.857142857142854" fill="#D5A18E"/><path d="M 464.04 950.89 A 30.43 30.43 0 0 1  494.47 920.46 L 464.04 950.89 A 30.43 30.43 0 0 0 494.47 920.46" fill="#83544c"/><rect x="540.1071428571429" y="920.4642857142858" width="60.857142857142854" height="60.857142857142854" fill="#D5A18E"/><path d="M 540.11 950.89 A 30.43 30.43 0 0 1  570.54 920.46 L 540.11 950.89 A 30.43 30.43 0 0 0 570.54 920.46" fill="#ddb2a3"/><circle cx="585.755" cy="935.6750000000001" r="15.215" fill="#faeceb"/><path d="M 570.54 950.89 A 30.43 30.43 0 0 1  600.9699999999999 981.3199999999999 L 570.54 950.89 A 30.43 30.43 0 0 0 600.9699999999999 981.3199999999999" fill="#f7e6e3"/><rect x="692.25" y="920.4642857142858" width="60.857142857142854" height="60.857142857142854" fill="#D5A18E"/><path d="M 722.68 920.46 A 30.43 30.43 0 0 0 753.1099999999999 950.89 L 753.1099999999999 920.46" fill="#e4c1b5"/><path d="M 692.25 950.89 A 30.43 30.43 0 0 1 722.68 981.3199999999999 L 692.25 981.3199999999999" fill="#e8c8be"/><circle cx="798.75" cy="950.89" r="30.43" fill="#99685e"/><rect x="844.3928571428571" y="920.4642857142858" width="60.857142857142854" height="60.857142857142854" fill="#D5A18E"/><path d="M 844.39 920.46 A 30.43 30.43 0 0 1 874.8199999999999 950.89 L 844.39 950.89" fill="#f9ebea"/><circle cx="950.89" cy="950.89" r="30.43" fill="#885850"/><rect x="1148.6785714285713" y="920.4642857142858" width="60.857142857142854" height="60.857142857142854" fill="#D5A18E"/><path d="M 1148.68 950.89 A 30.43 30.43 0 0 1  1179.1100000000001 920.46 L 1148.68 950.89 A 30.43 30.43 0 0 0 1179.1100000000001 920.46" fill="#ac7a6d"/><circle cx="1194.3249999999998" cy="935.6750000000001" r="15.215" fill="#e3beb2"/><path d="M 1179.11 981.3199999999999 A 30.43 30.43 0 0 1  1209.54 950.89 L 1179.11 981.3199999999999 A 30.43 30.43 0 0 0 1209.54 950.89" fill="#dfb5a7"/><rect x="1224.75" y="920.4642857142858" width="60.857142857142854" height="60.857142857142854" fill="#D5A18E"/><path d="M 1255.18 920.46 A 30.43 30.43 0 0 1  1285.6100000000001 950.89 L 1255.18 920.46 A 30.43 30.43 0 0 0 1285.6100000000001 950.89" fill="#dfb5a7"/><circle cx="1239.965" cy="966.105" r="15.215" fill="#e7c7bd"/><circle cx="1270.395" cy="966.105" r="15.215" fill="#e0b8aa"/><path d="M 1300.82 981.32 A 60.86 60.86 0 0 1  1361.6799999999998 920.46 L 1300.82 981.32 A 60.86 60.86 0 0 0 1361.6799999999998 920.46" fill="#efd6d0"/><rect x="83.67857142857143" y="996.5357142857143" width="60.857142857142854" height="60.857142857142854" fill="#D5A18E"/><path d="M 83.68 1026.97 A 30.43 30.43 0 0 1  114.11000000000001 996.54 L 83.68 1026.97 A 30.43 30.43 0 0 0 114.11000000000001 996.54" fill="#6e3f3b"/><path d="M 114.11 996.54 A 30.43 30.43 0 0 1  144.54 1026.97 L 114.11 996.54 A 30.43 30.43 0 0 0 144.54 1026.97" fill="#f8eae8"/><path d="M 83.68 1057.39 A 30.43 30.43 0 0 1  114.11000000000001 1026.96 L 83.68 1057.39 A 30.43 30.43 0 0 0 114.11000000000001 1026.96" fill="#f9ebe9"/><path d="M 114.11 1026.96 A 30.43 30.43 0 0 1  144.54 1057.39 L 114.11 1026.96 A 30.43 30.43 0 0 0 144.54 1057.39" fill="#8d5c54"/><rect x="235.82142857142858" y="996.5357142857143" width="60.857142857142854" height="60.857142857142854" fill="#D5A18E"/><path d="M 235.82 996.54 A 30.43 30.43 0 0 1 266.25 1026.97 L 235.82 1026.97" fill="#cf9b89"/><path d="M 266.25 1026.97 A 30.43 30.43 0 0 0 296.68 996.54 L 266.25 996.54" fill="#f9ebea"/><circle cx="281.465" cy="1042.175" r="15.215" fill="#e9cbc1"/><rect x="311.8928571428571" y="996.5357142857143" width="60.857142857142854" height="60.857142857142854" fill="#D5A18E"/><path d="M 311.89 1057.39 A 30.43 30.43 0 0 1  342.32 1026.96 L 311.89 1057.39 A 30.43 30.43 0 0 0 342.32 1026.96" fill="#9b6a5f"/><path d="M 342.32 1057.39 A 30.43 30.43 0 0 1  372.75 1026.96 L 372.75 1057.39" fill="#a8776a"/><path d="M 387.96 996.54 A 60.86 60.86 0 0 1 448.82 1057.3999999999999 L 387.96 1057.3999999999999" fill="#ac7a6d"/><circle cx="494.47" cy="1026.97" r="30.43" fill="#a17064"/><rect x="692.25" y="996.5357142857143" width="60.857142857142854" height="60.857142857142854" fill="#D5A18E"/><path d="M 692.25 1026.97 A 30.43 30.43 0 0 1  722.68 996.54 L 692.25 1026.97 A 30.43 30.43 0 0 0 722.68 996.54" fill="#82524b"/><circle cx="737.895" cy="1011.755" r="15.215" fill="#f5e3e0"/><circle cx="707.465" cy="1042.175" r="15.215" fill="#ddb2a3"/><path d="M 768.32 996.54 A 60.86 60.86 0 0 1  829.1800000000001 1057.3999999999999 L 768.32 996.54 A 60.86 60.86 0 0 0 829.1800000000001 1057.3999999999999" fill="#653734"/><path d="M 920.46 996.54 A 60.86 60.86 0 0 1  981.32 1057.3999999999999 L 920.46 996.54 A 60.86 60.86 0 0 0 981.32 1057.3999999999999" fill="#9e6c61"/><rect x="996.5357142857143" y="996.5357142857143" width="60.857142857142854" height="60.857142857142854" fill="#D5A18E"/><circle cx="1011.755" cy="1011.755" r="15.215" fill="#a57367"/><circle cx="1042.175" cy="1011.755" r="15.215" fill="#f2dcd7"/><circle cx="1042.175" cy="1042.175" r="15.215" fill="#e4c0b5"/><circle cx="1103.04" cy="1026.97" r="30.43" fill="#dfb6a7"/><path d="M 1300.82 1057.3999999999999 A 60.86 60.86 0 0 1  1361.6799999999998 996.54 L 1300.82 1057.3999999999999 A 60.86 60.86 0 0 0 1361.6799999999998 996.54" fill="#ce9b89"/><rect x="1376.892857142857" y="996.5357142857143" width="60.857142857142854" height="60.857142857142854" fill="#D5A18E"/><path d="M 1376.89 996.54 A 30.43 30.43 0 0 1  1407.3200000000002 1026.97 L 1376.89 996.54 A 30.43 30.43 0 0 0 1407.3200000000002 1026.97" fill="#fdf2f2"/><circle cx="1422.5349999999999" cy="1011.755" r="15.215" fill="#754641"/><circle cx="1392.105" cy="1042.175" r="15.215" fill="#dfb6a8"/><path d="M 1529.04 996.54 A 60.86 60.86 0 0 1  1589.8999999999999 1057.3999999999999 L 1529.04 996.54 A 60.86 60.86 0 0 0 1589.8999999999999 1057.3999999999999" fill="#b78476"/></g></svg>