<svg width="802" height="162" viewBox="0 0 802 162" fill="none" xmlns="http://www.w3.org/2000/svg">
<path d="M109.387 7.73422H0.237161V29.3564H42.6499V162H66.9748V29.3564H109.387V7.73422ZM199.615 162C210.01 162 220.198 159.921 229.761 155.971C238.909 152.021 247.018 146.407 254.294 139.338C261.363 132.27 266.769 124.161 270.719 114.805C274.669 105.45 276.748 95.2624 276.748 84.8671C276.748 74.4718 274.669 64.2845 270.719 54.7208C266.769 45.573 261.363 37.4647 254.294 30.188C247.018 23.1192 238.909 17.7137 229.761 13.7635C220.198 9.81327 210.01 7.73422 199.615 7.73422C189.22 7.73422 179.033 9.81327 169.677 13.7635C160.321 17.7137 152.213 23.1192 145.144 30.188C138.075 37.4647 132.462 45.573 128.512 54.7208C124.561 64.2845 122.482 74.4718 122.482 84.8671C122.482 95.2624 124.561 105.45 128.512 114.805C132.462 124.161 138.075 132.27 145.144 139.338C152.213 146.407 160.321 152.021 169.677 155.971C179.033 159.921 189.22 162 199.615 162ZM199.615 31.8512C213.753 31.8512 227.059 37.4647 237.038 47.4442C247.018 57.4236 252.631 70.7295 252.631 84.8671C252.631 99.0047 247.018 112.311 237.038 122.29C227.059 132.27 213.753 137.883 199.615 137.883C185.478 137.883 172.172 132.27 162.192 122.29C152.213 112.311 146.599 99.0047 146.599 84.8671C146.599 70.7295 152.213 57.4236 162.192 47.4442C172.172 37.4647 185.478 31.8512 199.615 31.8512ZM366.071 106.281C374.387 103.371 380.209 98.5889 383.951 94.4308C392.059 85.4908 396.425 73.0165 396.425 58.8789C396.425 44.5335 392.059 32.0592 383.951 23.1192C377.714 16.0504 365.863 7.73422 345.488 7.73422H320.124H299.749V162H323.866V109.816H341.538L380.416 162H407.652L366.071 106.281ZM323.866 88.1936V29.5643H345.488C355.468 29.5643 362.952 32.2671 367.734 37.6726C373.556 43.9098 374.595 52.6418 374.595 58.8789C374.595 64.9082 373.556 73.6402 367.734 79.8774C362.952 85.2829 355.468 88.1936 345.488 88.1936H323.866ZM547.91 81.9564H494.686V103.787H523.793V132.27C523.585 132.27 523.585 132.27 523.585 132.27C520.883 133.725 517.972 134.764 515.061 135.596C515.061 135.596 514.853 135.804 514.645 135.804C514.437 135.804 514.022 135.804 513.814 136.012C513.606 136.012 513.398 136.012 513.19 136.22C512.982 136.22 512.774 136.22 512.566 136.22C512.358 136.428 511.943 136.428 511.735 136.428C511.527 136.636 511.527 136.636 511.319 136.636C509.864 136.843 508.2 137.259 506.745 137.467C506.537 137.467 506.537 137.467 506.329 137.467C506.121 137.467 505.705 137.467 505.498 137.467C505.29 137.467 505.082 137.467 505.082 137.675C504.666 137.675 504.458 137.675 504.042 137.675C503.834 137.675 503.626 137.675 503.418 137.675C503.211 137.675 503.003 137.675 502.795 137.675C502.587 137.675 502.171 137.675 501.963 137.675C501.755 137.883 501.547 137.883 501.339 137.883C500.924 137.883 500.3 137.883 499.884 137.883C485.747 137.883 472.441 132.27 462.461 122.29C456.016 115.845 451.442 107.945 448.947 99.2126C447.908 95.4703 447.284 91.5201 447.076 87.5699C446.868 86.5304 446.868 85.6987 446.868 84.8671C446.868 83.8276 446.868 82.996 447.076 81.9564C447.076 81.3327 447.076 80.5011 447.076 79.6695C447.284 77.5904 447.7 75.5114 448.116 73.4323C448.116 73.2244 448.116 73.2244 448.324 73.0165C449.571 67.4031 451.65 62.2054 454.769 57.2157C454.769 57.0078 454.977 56.592 455.184 56.3841C455.6 55.7604 456.016 55.1367 456.432 54.5129C456.432 54.5129 456.64 54.305 456.848 54.0971C457.679 52.8497 458.511 51.6023 459.55 50.3548C459.758 50.3548 459.758 50.1469 459.758 50.1469C460.59 49.1074 461.629 48.2758 462.461 47.4442C465.164 44.5335 468.282 42.0386 471.609 39.9596C472.025 39.7517 472.441 39.5437 472.648 39.3358C480.757 34.3461 490.113 31.8512 499.884 31.8512C500.3 31.8512 500.924 31.8512 501.339 31.8512C501.339 31.8512 501.547 31.8512 501.755 31.8512C501.963 31.8512 502.379 31.8512 502.587 31.8512C502.795 31.8512 503.003 31.8512 503.211 31.8512C503.418 31.8512 503.626 32.0592 503.834 32.0592C504.25 32.0592 504.666 32.0592 505.082 32.0592C505.29 32.0592 505.498 32.0592 505.705 32.0592C505.913 32.2671 506.329 32.2671 506.537 32.2671C506.745 32.2671 506.745 32.2671 506.953 32.2671C507.161 32.2671 507.577 32.475 507.784 32.475C507.992 32.475 507.992 32.475 508.2 32.475C509.032 32.6829 510.071 32.6829 510.903 32.8908C511.111 33.0987 511.319 33.0987 511.319 33.0987C511.735 33.0987 511.943 33.0987 512.15 33.3066C512.358 33.3066 512.566 33.3066 512.774 33.3066C512.982 33.5145 513.19 33.5145 513.398 33.5145C516.516 34.3461 519.843 35.5935 522.962 37.0489C526.704 38.92 530.238 40.9991 533.357 43.7019V15.2188C533.357 15.2188 533.357 15.2188 533.149 15.2188C532.733 15.0109 532.317 14.803 531.901 14.5951C531.694 14.5951 531.694 14.3872 531.694 14.3872C523.377 10.6449 514.645 8.56584 505.705 7.94212C505.082 7.73422 504.458 7.73422 503.834 7.73422C503.834 7.73422 503.834 7.73422 503.626 7.73422C503.211 7.73422 502.587 7.73422 501.963 7.73422H501.755C501.131 7.73422 500.508 7.73422 499.884 7.73422C489.489 7.73422 479.301 9.60537 469.946 13.7635C460.59 17.5058 452.482 23.1192 445.413 30.188C438.344 37.2568 432.731 45.573 428.78 54.7208C425.246 63.0371 423.375 71.977 422.751 80.9169C422.751 82.1643 422.751 83.6197 422.751 84.8671C422.751 87.362 422.959 90.0647 423.167 92.5596C423.791 100.252 425.87 107.737 428.78 114.805C432.731 124.161 438.344 132.27 445.413 139.338C450.403 144.536 456.224 148.902 462.461 152.228C464.748 153.684 467.243 154.931 469.946 155.971C470.985 156.387 472.025 156.802 473.064 157.218C473.896 157.426 474.52 157.842 475.351 158.05C475.351 158.05 475.351 158.05 475.559 158.05C483.252 160.753 491.568 162 499.884 162C500.508 162 501.131 162 501.755 162H501.963C502.587 162 503.211 162 503.626 162C503.834 162 503.834 162 503.834 162C513.606 161.376 522.754 159.297 531.486 155.347C531.694 155.139 531.694 155.139 531.694 155.139C532.109 154.931 532.733 154.723 533.149 154.515C533.565 154.308 533.981 154.1 534.188 153.892C534.396 153.892 534.396 153.892 534.604 153.892C534.812 153.684 534.812 153.684 535.02 153.476C535.436 153.476 535.852 153.268 536.06 153.06C536.268 152.852 536.475 152.852 536.683 152.644C537.099 152.436 537.307 152.436 537.723 152.228C537.931 152.021 538.139 152.021 538.347 151.813C538.554 151.605 538.762 151.605 538.97 151.397C539.386 151.189 539.594 150.981 539.802 150.773C540.218 150.773 540.426 150.565 540.634 150.357C540.841 150.357 541.049 150.149 541.257 149.941C541.465 149.941 541.881 149.734 542.089 149.526C542.297 149.318 542.297 149.318 542.505 149.318L547.91 145.575V103.787V81.9564ZM668.903 162H695.307L628.361 0.665444L561.208 162H587.82L600.918 128.943H655.805L668.903 162ZM609.65 107.321L628.361 60.3343L647.073 107.321H609.65ZM801.196 140.17H736.745V7.73422H712.628V162H736.537H801.196V140.17Z" fill="#E9E9E9"/>
</svg>
